<?xml version="1.0" standalone="no"?>
<!DOCTYPE svg PUBLIC "-//W3C//DTD SVG 20010904//EN"
 "http://www.w3.org/TR/2001/REC-SVG-20010904/DTD/svg10.dtd">
<svg version="1.0" xmlns="http://www.w3.org/2000/svg"
 width="1340.000000pt" height="191.000000pt" viewBox="0 0 1340.000000 191.000000"
 preserveAspectRatio="xMidYMid meet">

<g transform="translate(0.000000,191.000000) scale(0.100000,-0.100000)"
fill="#000000" stroke="none">
<path d="M6493 1433 c15 -2 39 -2 55 0 15 2 2 4 -28 4 -30 0 -43 -2 -27 -4z"/>
<path d="M6393 1423 c9 -2 25 -2 35 0 9 3 1 5 -18 5 -19 0 -27 -2 -17 -5z"/>
<path d="M6613 1423 c9 -2 25 -2 35 0 9 3 1 5 -18 5 -19 0 -27 -2 -17 -5z"/>
<path d="M6338 1413 c7 -3 16 -2 19 1 4 3 -2 6 -13 5 -11 0 -14 -3 -6 -6z"/>
<path d="M6688 1413 c7 -3 16 -2 19 1 4 3 -2 6 -13 5 -11 0 -14 -3 -6 -6z"/>
<path d="M10938 1339 c-187 -103 -188 -105 -188 -297 0 -151 10 -186 61 -224
67 -49 266 -148 299 -148 21 0 78 25 163 71 158 86 155 84 178 134 15 31 19
66 19 160 0 139 -9 181 -47 217 -40 36 -286 168 -315 168 -13 0 -90 -37 -170
-81z m-108 -92 c0 -2 -10 -12 -22 -23 l-23 -19 19 23 c18 21 26 27 26 19z
m110 -8 c0 -5 -6 -7 -12 -3 -8 5 -7 1 2 -10 8 -11 16 -14 18 -7 6 19 32 12 32
-8 0 -15 -7 -19 -35 -19 -19 0 -35 4 -35 10 0 5 6 6 13 2 10 -6 10 -4 0 7 -18
18 -16 39 2 39 8 0 15 -5 15 -11z m98 -2 c15 -7 34 -13 42 -12 8 0 18 -4 22
-10 5 -6 8 -6 8 3 0 6 7 12 15 12 8 0 15 -9 15 -19 0 -17 -6 -19 -41 -17 -22
1 -45 9 -50 17 -7 11 -9 10 -9 -5 0 -24 -16 -10 -23 19 -4 15 -5 13 -6 -7 -1
-34 -21 -38 -21 -5 0 22 7 37 17 37 2 0 16 -6 31 -13z m373 -4 c13 -16 12 -17
-3 -4 -10 7 -18 15 -18 17 0 8 8 3 21 -13z m-101 -17 c0 -18 -7 -25 -27 -29
-35 -7 -63 8 -63 33 0 17 7 20 45 20 41 0 45 -2 45 -24z m-147 -6 c-3 -11 -7
-20 -9 -20 -2 0 -4 9 -4 20 0 11 4 20 9 20 5 0 7 -9 4 -20z m47 0 c0 -21 -24
-28 -35 -10 -8 14 3 30 21 30 8 0 14 -9 14 -20z m-156 -52 c8 -33 8 -34 -14
-34 -11 0 -20 3 -20 6 1 17 14 50 20 50 4 0 10 -10 14 -22z m46 -8 c0 -20 -5
-30 -15 -30 -18 0 -20 31 -3 48 17 17 18 16 18 -18z m58 11 c40 9 55 3 32 -11
-10 -7 -11 -10 -2 -10 6 0 12 -4 12 -9 0 -16 -50 -7 -50 9 -1 11 -3 10 -11 -4
-9 -15 -13 -16 -20 -5 -5 8 -8 21 -8 29 0 8 3 10 5 4 3 -8 17 -9 42 -3z m85
-4 c3 -8 1 -20 -4 -28 -11 -19 -34 3 -26 25 8 20 23 21 30 3z m-338 -97 c3 -5
-2 -10 -12 -11 -10 0 -13 -3 -5 -6 17 -7 15 -23 -3 -23 -8 0 -15 -4 -15 -10 0
-5 -4 -10 -10 -10 -11 0 -14 53 -3 63 10 10 41 8 48 -3z m55 0 c8 -5 15 -21
15 -35 1 -28 -5 -31 -23 -13 -9 9 -12 9 -12 0 0 -7 -4 -12 -10 -12 -11 0 -14
53 -3 63 9 9 15 9 33 -3z m98 -33 c-5 -37 -67 -33 -68 5 0 4 7 14 16 22 21 22
56 3 52 -27z m142 34 c0 -6 -4 -13 -10 -16 -5 -3 -10 -15 -10 -26 0 -10 -4
-19 -10 -19 -5 0 -10 11 -10 25 0 14 -5 25 -11 25 -5 0 -7 5 -4 10 8 13 55 13
55 1z m-102 -13 c9 -9 12 -9 12 0 0 7 5 12 10 12 6 0 10 -13 10 -30 0 -32 -9
-37 -28 -18 -9 9 -12 9 -12 0 0 -7 -4 -12 -10 -12 -5 0 -10 14 -10 30 0 32 9
37 28 18z m-191 -105 c1 -33 -10 -44 -21 -20 -5 10 -7 10 -12 0 -11 -25 -24
-13 -24 23 0 33 2 35 28 32 23 -3 27 -8 29 -35z m33 12 c0 -14 5 -25 10 -25 6
0 10 11 10 25 0 14 5 25 11 25 6 0 9 -14 7 -32 -2 -28 -7 -33 -28 -33 -21 0
-26 5 -28 33 -2 18 1 32 7 32 6 0 11 -11 11 -25z m86 8 c13 -17 13 -17 14 0 0
27 20 10 20 -18 0 -29 -19 -43 -31 -24 -6 10 -9 11 -9 2 0 -7 -4 -13 -10 -13
-5 0 -10 16 -10 35 0 39 6 43 26 18z m73 0 c10 -17 10 -17 11 0 0 9 5 17 10
17 6 0 10 -16 10 -35 0 -38 -13 -46 -29 -17 -10 16 -10 16 -11 0 0 -10 -4 -18
-10 -18 -5 0 -10 16 -10 35 0 38 13 46 29 18z m87 2 c-20 -15 -20 -15 0 -16
18 0 18 -1 -1 -9 -17 -7 -17 -9 -2 -9 30 -2 18 -21 -13 -21 -28 0 -30 3 -30
35 0 33 2 35 33 35 30 -1 31 -1 13 -15z m81 -22 c1 -35 -5 -41 -25 -21 -9 9
-12 9 -12 0 0 -7 -4 -12 -10 -12 -5 0 -10 16 -10 36 0 33 2 35 28 32 23 -3 27
-8 29 -35z m68 27 c3 -5 -2 -11 -12 -11 -17 -1 -17 -2 0 -6 21 -5 23 -31 2
-39 -8 -4 -23 -3 -32 1 -17 8 -17 8 0 12 17 4 17 5 1 17 -9 7 -14 18 -10 24 9
15 43 16 51 2z m-289 -168 c-17 -16 -18 -16 -5 5 7 12 15 20 18 17 3 -2 -3
-12 -13 -22z m90 0 c-17 -16 -18 -16 -5 5 7 12 15 20 18 17 3 -2 -3 -12 -13
-22z m-59 -4 c-3 -8 -6 -5 -6 6 -1 11 2 17 5 13 3 -3 4 -12 1 -19z m46 -105
c-7 -2 -19 -2 -25 0 -7 3 -2 5 12 5 14 0 19 -2 13 -5z"/>
<path d="M11020 1030 c0 -19 3 -21 12 -12 9 9 9 15 0 24 -9 9 -12 7 -12 -12z"/>
<path d="M815 1359 c2 -45 5 -52 33 -69 31 -19 33 -19 63 -1 28 17 32 25 34
70 l3 51 -67 0 -68 0 2 -51z m101 -4 c3 -32 -10 -55 -34 -55 -19 0 -52 29 -52
46 0 22 32 45 58 42 19 -2 26 -9 28 -33z"/>
<path d="M873 1363 c-15 -5 -18 -33 -4 -33 8 0 25 30 19 35 -2 1 -9 0 -15 -2z"/>
<path d="M1573 1393 c-4 -10 -7 -69 -8 -130 0 -79 -4 -113 -12 -113 -9 0 -53
-108 -53 -132 0 -4 10 -8 23 -8 18 0 25 9 37 53 l15 52 342 3 342 2 4 33 4 32
1 -32 c3 -55 20 -37 27 28 7 56 0 171 -11 212 -5 16 -31 17 -355 17 -324 0
-350 -1 -356 -17z m693 -46 l1 -37 -4 35 -4 35 -330 0 -329 0 -1 -27 c-1 -18
-3 -22 -6 -10 -12 48 -16 47 339 45 l333 -3 1 -38z m-679 -134 c-2 -21 -4 -6
-4 32 0 39 2 55 4 38 2 -18 2 -50 0 -70z m144 40 c-16 -58 -16 -58 -19 -20 -3
35 -5 37 -40 38 l-37 0 45 19 c68 27 69 27 51 -37z m99 28 c0 -5 -8 -7 -19 -4
-21 5 -34 -18 -24 -43 3 -9 13 -14 24 -11 11 3 19 1 19 -4 0 -18 -49 -9 -60
11 -15 28 4 60 35 60 14 0 25 -4 25 -9z m164 -3 c10 -10 11 -17 2 -31 -9 -14
-8 -20 4 -27 12 -8 11 -10 -7 -10 -20 0 -23 5 -23 40 0 43 3 47 24 28z m283
-55 c-2 -16 -4 -5 -4 22 0 28 2 40 4 28 2 -13 2 -35 0 -50z m-389 15 c3 -24 0
-28 -22 -28 -16 0 -26 6 -26 15 0 18 16 20 23 3 3 -7 4 -3 4 8 -1 14 -6 20
-14 17 -7 -3 -13 0 -13 7 0 6 10 10 23 8 16 -2 23 -11 25 -30z m70 0 c3 -23
-1 -28 -17 -28 -12 0 -21 -7 -21 -15 0 -8 -4 -15 -10 -15 -5 0 -10 21 -10 46
0 44 1 45 28 42 21 -2 28 -9 30 -30z m110 9 c2 -11 -3 -17 -15 -18 -16 0 -16
-1 2 -9 18 -8 17 -9 -7 -9 -23 -1 -28 3 -28 22 0 13 3 27 7 31 12 12 38 2 41
-17z m52 13 c0 -5 -4 -10 -10 -10 -5 0 -10 -9 -10 -20 0 -11 -4 -20 -10 -20
-5 0 -10 14 -10 30 0 23 4 30 20 30 11 0 20 -4 20 -10z m50 0 c0 -5 -4 -10
-10 -10 -5 0 -10 -9 -10 -20 0 -11 -4 -20 -10 -20 -5 0 -10 14 -10 30 0 23 4
30 20 30 11 0 20 -4 20 -10z m58 -22 c3 -24 0 -28 -22 -28 -21 0 -25 4 -24 30
1 26 5 30 22 28 15 -2 22 -11 24 -30z"/>
<path d="M1920 1235 c0 -8 5 -15 10 -15 6 0 10 7 10 15 0 8 -4 15 -10 15 -5 0
-10 -7 -10 -15z"/>
<path d="M2195 1230 c-3 -5 -1 -10 4 -10 6 0 11 5 11 10 0 6 -2 10 -4 10 -3 0
-8 -4 -11 -10z"/>
<path d="M2900 1357 c0 -51 1 -54 35 -70 33 -16 37 -16 70 0 34 16 35 19 35
70 l0 53 -70 0 -70 0 0 -53z m80 23 c0 -5 -7 -13 -17 -18 -20 -12 -10 -42 14
-42 15 0 16 2 3 10 -12 8 -13 12 -2 19 8 4 13 11 13 15 -3 18 0 27 7 22 15 -9
7 -69 -10 -80 -40 -25 -80 44 -42 71 21 15 34 17 34 3z"/>
<path d="M6298 1403 c7 -3 16 -2 19 1 4 3 -2 6 -13 5 -11 0 -14 -3 -6 -6z"/>
<path d="M6378 1400 c-26 -4 -70 -16 -98 -25 l-50 -17 0 -165 c0 -92 5 -195
11 -229 20 -116 91 -200 227 -271 l52 -28 53 28 c139 73 205 154 225 276 17
98 16 375 0 389 -47 37 -304 64 -420 42z m-22 -126 c-13 -35 -15 -36 -15 -11
-1 24 -5 27 -33 28 -33 0 -33 0 12 18 25 11 46 16 48 12 1 -4 -4 -25 -12 -47z
m67 26 c-13 -5 -23 -14 -23 -20 0 -6 10 -15 23 -19 19 -8 20 -10 5 -16 -23 -9
-38 2 -38 29 0 28 8 36 34 35 20 0 20 -1 -1 -9z m155 -22 c-10 -8 -10 -11 0
-15 17 -7 15 -23 -3 -23 -11 0 -15 11 -15 36 0 32 2 35 15 24 13 -11 13 -15 3
-22z m-88 -13 c0 -18 -5 -25 -20 -25 -11 0 -20 7 -20 15 0 8 6 15 13 15 8 0 7
4 -3 10 -12 8 -11 10 8 10 17 0 22 -6 22 -25z m60 7 c0 -15 -32 -52 -45 -52
-3 0 -5 16 -5 35 0 31 3 35 25 35 17 0 25 -5 25 -18z m90 7 c0 -6 -7 -8 -16
-5 -10 4 -14 2 -11 -6 2 -7 11 -12 18 -10 11 3 12 1 1 -9 -10 -11 -15 -10 -28
3 -9 9 -13 21 -10 27 9 14 46 14 46 0z m34 3 c-7 -4 -14 -16 -17 -27 -4 -15
-5 -14 -6 8 -1 20 4 27 17 27 11 0 13 -3 6 -8z m40 0 c-7 -4 -14 -16 -17 -27
-4 -15 -5 -14 -6 8 -1 20 4 27 17 27 11 0 13 -3 6 -8z m56 -17 c0 -18 -5 -25
-20 -25 -15 0 -19 6 -18 25 2 17 8 25 20 25 13 0 18 -8 18 -25z m-240 -125
c27 -27 25 -68 -5 -113 l-26 -37 31 0 c25 0 30 -4 30 -25 0 -24 -2 -25 -71
-25 l-71 0 17 28 c10 15 25 36 34 47 27 33 44 73 38 89 -8 20 -36 21 -43 1 -4
-8 -15 -15 -25 -15 -10 0 -19 7 -19 15 0 23 37 55 65 55 14 0 34 -9 45 -20z
m206 -14 c24 -24 34 -43 34 -65 0 -77 -63 -130 -133 -110 -58 16 -88 83 -63
143 31 74 105 89 162 32z m-406 -56 c0 -5 -4 -10 -10 -10 -5 0 -10 -13 -10
-30 0 -16 -4 -30 -10 -30 -5 0 -10 14 -10 30 0 17 -4 30 -10 30 -5 0 -10 5
-10 10 0 6 14 10 30 10 17 0 30 -4 30 -10z m72 -7 c17 -15 18 -15 18 0 0 25
47 22 55 -3 8 -24 -1 -40 -21 -40 -8 0 -14 -4 -14 -10 0 -5 -4 -10 -10 -10 -5
0 -10 8 -10 18 -1 16 -1 16 -11 0 -25 -44 -93 -3 -69 42 13 24 37 26 62 3z
m198 -218 c6 -8 10 -22 8 -32 -3 -16 -14 -18 -88 -18 -74 0 -85 2 -88 18 -7
35 17 47 88 47 47 0 71 -4 80 -15z"/>
<path d="M6622 1098 c-18 -18 -14 -73 6 -91 25 -23 58 -21 82 3 24 24 25 48 4
78 -17 25 -71 31 -92 10z"/>
<path d="M6364 1046 c-8 -22 3 -33 18 -18 9 9 9 15 0 24 -9 9 -13 7 -18 -6z"/>
<path d="M6440 1050 c0 -5 5 -10 10 -10 6 0 10 5 10 10 0 6 -4 10 -10 10 -5 0
-10 -4 -10 -10z"/>
<path d="M6491 821 c0 -12 2 -12 6 -2 3 8 8 9 12 3 4 -6 10 -5 18 3 9 10 6 13
-13 13 -16 0 -24 -6 -23 -17z"/>
<path d="M6551 823 c0 -11 3 -13 6 -5 2 6 10 9 15 6 7 -4 8 -2 4 4 -11 18 -26
14 -25 -5z"/>
<path d="M6728 1403 c7 -3 16 -2 19 1 4 3 -2 6 -13 5 -11 0 -14 -3 -6 -6z"/>
<path d="M7382 1358 c3 -47 6 -54 35 -71 29 -17 34 -17 62 -2 29 14 31 19 31
70 l0 55 -66 0 -65 0 3 -52z m84 24 c17 -11 24 -54 12 -69 -16 -20 -56 -16
-68 7 -15 28 6 65 40 69 3 0 10 -3 16 -7z"/>
<path d="M7441 1361 c-8 -5 -11 -16 -8 -25 9 -24 22 -19 23 9 1 14 1 25 0 25
0 0 -7 -4 -15 -9z"/>
<path d="M3725 1310 l-150 -88 -3 -179 -2 -180 152 -88 c84 -49 158 -88 164
-88 6 0 79 39 162 87 l152 88 -2 180 -3 181 -150 88 c-82 48 -154 88 -160 88
-5 -1 -77 -40 -160 -89z m313 -15 l142 -80 0 -171 0 -172 -141 -81 c-77 -44
-146 -81 -152 -81 -6 0 -75 36 -154 81 l-143 81 0 169 0 168 118 69 c141 83
175 102 183 99 3 -1 69 -38 147 -82z"/>
<path d="M3750 1280 l-135 -78 -3 -159 -2 -159 133 -77 c74 -42 138 -77 142
-77 5 0 69 34 142 76 l133 77 -2 160 -3 161 -85 48 c-47 27 -107 62 -135 77
l-50 29 -135 -78z m105 -30 l22 -20 25 20 c32 24 46 25 70 3 21 -18 24 -53 6
-71 -9 -9 -7 -17 10 -35 12 -13 22 -26 22 -30 0 -15 -30 -6 -57 17 l-27 24
-11 -22 c-6 -11 -18 -22 -28 -24 -31 -6 -47 17 -47 69 0 44 -2 49 -23 49 -23
0 -47 17 -47 32 0 17 64 7 85 -12z m48 -207 c-7 -17 -30 -17 -35 -1 -3 7 0 18
6 24 13 14 36 -5 29 -23z m-105 0 c-26 -2 -71 -2 -100 0 -29 2 -8 3 47 3 55 0
79 -1 53 -3z m280 0 c-26 -2 -71 -2 -100 0 -29 2 -8 3 47 3 55 0 79 -1 53 -3z
m-335 -80 c-6 -16 -5 -16 11 -4 15 13 19 13 27 0 6 -10 9 -10 9 -1 0 6 9 12
20 12 14 0 20 -7 20 -24 0 -23 -31 -47 -38 -28 -2 6 -12 8 -22 5 -12 -3 -20 0
-20 7 0 10 -3 10 -15 0 -13 -11 -15 -8 -15 13 0 14 -6 28 -12 30 -7 3 -1 6 14
6 22 1 26 -2 21 -16z m157 -11 c0 -21 -5 -28 -20 -28 -15 0 -20 7 -20 28 0 21
5 28 20 28 15 0 20 -7 20 -28z m76 -1 c-5 -12 -3 -11 9 3 11 15 17 16 28 7 11
-9 17 -8 27 4 19 23 30 18 30 -15 0 -23 -4 -30 -20 -30 -11 0 -20 6 -20 13 0
8 -2 9 -8 1 -11 -18 -62 -14 -63 5 -1 13 -2 13 -6 -1 -2 -10 -13 -18 -24 -18
-14 0 -19 7 -19 26 0 21 4 25 20 21 11 -3 23 -1 26 4 9 15 26 -2 20 -20z
m-150 -62 c5 -8 9 -7 14 1 12 20 40 3 40 -24 0 -22 -4 -24 -45 -24 -46 0 -54
5 -33 26 9 9 9 12 0 12 -7 0 -12 5 -12 10 0 14 27 13 36 -1z m99 1 c4 -6 2
-17 -5 -24 -8 -11 -8 -15 2 -19 7 -3 3 -6 -9 -6 -25 -1 -29 9 -11 27 9 9 9 12
0 12 -7 0 -12 5 -12 10 0 13 27 13 35 0z m59 -5 c8 -22 -4 -45 -24 -45 -22 0
-30 19 -18 43 11 21 34 22 42 2z"/>
<path d="M3920 1211 c0 -14 5 -18 20 -14 11 3 20 12 20 19 0 8 -9 14 -20 14
-13 0 -20 -7 -20 -19z"/>
<path d="M3850 864 c0 -8 5 -12 10 -9 6 3 10 10 10 16 0 5 -4 9 -10 9 -5 0
-10 -7 -10 -16z"/>
<path d="M3815 860 c-3 -5 -1 -10 4 -10 6 0 11 5 11 10 0 6 -2 10 -4 10 -3 0
-8 -4 -11 -10z"/>
<path d="M3950 865 c0 -8 5 -15 10 -15 6 0 10 7 10 15 0 8 -4 15 -10 15 -5 0
-10 -7 -10 -15z"/>
<path d="M6219 1373 c-13 -17 -13 -17 6 -3 11 8 22 16 24 17 2 2 0 3 -6 3 -6
0 -17 -8 -24 -17z"/>
<path d="M6204 1200 c0 -85 2 -120 3 -77 2 42 2 112 0 155 -1 42 -3 7 -3 -78z"/>
<path d="M6834 1210 c0 -80 2 -112 3 -72 2 39 2 105 0 145 -1 39 -3 7 -3 -73z"/>
<path d="M8154 1265 c-31 -46 -54 -90 -51 -97 2 -7 95 -118 206 -245 128 -148
208 -233 220 -233 12 0 93 86 221 233 111 127 204 237 207 244 2 6 -21 50 -51
97 l-56 86 -320 0 -320 0 -56 -85z m134 -38 l22 -23 -23 -22 -23 -22 -24 25
c-23 24 -23 25 -5 45 23 25 27 25 53 -3z m40 -36 c-9 -12 -7 -12 7 1 18 17 18
18 -1 40 -18 21 -17 21 9 -1 25 -23 26 -25 10 -43 -9 -10 -22 -17 -29 -14 -6
2 -17 -1 -23 -7 -8 -8 -11 -8 -11 0 0 6 7 16 15 23 14 12 14 15 0 30 -25 27
-17 35 10 10 20 -19 23 -26 13 -39z m132 44 c11 -13 8 -14 -19 -9 -28 6 -31 4
-31 -20 0 -17 5 -26 16 -26 10 0 14 6 10 15 -4 11 1 15 19 15 13 0 27 5 31 11
3 6 16 8 29 5 15 -4 25 -1 29 10 5 14 8 14 23 -2 13 -12 14 -19 5 -22 -14 -4
-16 -32 -2 -32 6 0 10 -4 10 -10 0 -17 -27 -11 -34 7 -6 14 -8 14 -21 -3 -12
-16 -17 -17 -34 -6 -17 10 -25 10 -41 0 -36 -23 -73 23 -56 68 7 19 50 18 66
-1z m196 -26 c11 -32 12 -33 15 -9 4 24 7 25 69 25 l65 0 0 -30 c0 -22 -5 -31
-20 -34 -11 -2 -23 -8 -27 -14 -5 -8 -9 -6 -13 5 -6 16 -44 14 -56 -4 -3 -4
-15 1 -27 12 -22 21 -52 27 -52 10 0 -5 -4 -10 -10 -10 -14 0 -13 11 5 54 19
44 34 43 51 -5z m-248 -126 c-20 -5 -24 -18 -9 -28 6 -3 20 5 32 17 17 18 21
19 16 5 -4 -11 -3 -16 3 -12 6 3 10 2 10 -3 0 -15 -59 -20 -71 -6 -14 17 -3
34 19 33 15 -1 15 -2 0 -6z m75 -13 c-3 -11 -7 -20 -8 -20 -1 0 -5 9 -8 20 -3
12 0 20 8 20 8 0 11 -8 8 -20z m33 -5 c0 -14 -4 -25 -8 -25 -4 0 -8 11 -8 25
0 14 4 25 8 25 4 0 8 -11 8 -25z m37 18 c-7 -2 -13 -11 -13 -19 0 -11 5 -10
21 4 22 21 99 27 99 8 0 -6 5 -4 10 4 11 17 13 9 4 -15 -5 -13 -9 -14 -15 -3
-6 9 -11 10 -16 2 -5 -6 -16 -10 -25 -8 -10 1 -21 -2 -24 -7 -4 -6 -11 -6 -19
1 -9 8 -15 8 -20 0 -9 -15 -25 -2 -25 21 0 12 7 19 18 18 10 0 12 -3 5 -6z
m-193 -84 c0 -10 7 -19 15 -19 9 0 15 9 15 25 0 18 5 25 20 25 22 0 28 -35 8
-43 -8 -3 -6 -6 5 -6 10 -1 22 10 27 24 12 31 30 32 38 3 l5 -22 9 23 c12 32
53 25 53 -9 0 -25 0 -25 -107 -28 l-108 -2 0 31 c0 17 4 28 10 24 6 -3 10 -15
10 -26z m250 11 c0 -11 -6 -20 -12 -20 -9 0 -8 -4 2 -10 12 -8 11 -10 -7 -10
-19 0 -23 6 -23 30 0 23 4 30 20 30 13 0 20 -7 20 -20z m60 -10 c0 -28 -19
-44 -21 -17 0 10 -2 10 -6 0 -9 -24 -23 -13 -23 17 0 25 4 30 25 30 21 0 25
-5 25 -30z m57 -2 c3 -24 0 -28 -20 -28 -20 0 -24 5 -25 31 -1 25 3 30 20 27
15 -2 23 -12 25 -30z m-239 -113 c-2 -23 -28 -37 -28 -15 0 6 5 10 10 10 6 0
10 7 10 15 0 8 2 15 5 15 3 0 4 -11 3 -25z m48 1 c2 -12 1 -13 -3 -1 -6 20
-23 19 -23 -2 0 -9 -3 -14 -6 -10 -4 3 -4 13 0 22 8 21 30 14 32 -9z m38 0
c-3 -9 -10 -16 -15 -16 -5 0 -4 9 3 20 14 22 21 20 12 -4z m36 4 c0 -11 -2
-20 -4 -20 -2 0 -6 9 -9 20 -3 11 -1 20 4 20 5 0 9 -9 9 -20z"/>
<path d="M8498 1203 c7 -3 16 -2 19 1 4 3 -2 6 -13 5 -11 0 -14 -3 -6 -6z"/>
<path d="M8498 1183 c7 -3 16 -2 19 1 4 3 -2 6 -13 5 -11 0 -14 -3 -6 -6z"/>
<path d="M8697 1204 c-8 -8 1 -24 14 -24 5 0 9 7 9 15 0 15 -12 20 -23 9z"/>
<path d="M8767 1204 c-8 -8 1 -24 14 -24 5 0 9 7 9 15 0 15 -12 20 -23 9z"/>
<path d="M8580 1064 c0 -8 5 -12 10 -9 6 3 10 10 10 16 0 5 -4 9 -10 9 -5 0
-10 -7 -10 -16z"/>
<path d="M8520 1000 c0 -5 5 -10 10 -10 6 0 10 5 10 10 0 6 -4 10 -10 10 -5 0
-10 -4 -10 -10z"/>
<path d="M4481 1256 c-17 -21 -6 -51 24 -64 31 -14 33 -34 3 -30 -13 2 -25 -1
-28 -7 -7 -15 49 -19 66 -4 22 18 17 38 -16 57 -34 19 -34 38 -1 34 15 -1 21
3 19 10 -6 19 -53 21 -67 4z"/>
<path d="M4681 1246 c-11 -27 -3 -106 10 -106 5 0 9 14 9 30 0 17 5 30 10 30
15 0 12 30 -2 30 -8 1 -6 6 5 14 23 17 22 26 -3 26 -12 0 -24 -10 -29 -24z"/>
<path d="M5287 1263 c-2 -5 -12 -32 -22 -61 -17 -54 -14 -75 7 -54 15 15 48
16 48 2 0 -5 6 -10 14 -10 11 0 10 12 -7 65 -20 61 -30 75 -40 58z m16 -63 c3
-11 1 -20 -4 -20 -5 0 -9 9 -9 20 0 11 2 20 4 20 2 0 6 -9 9 -20z"/>
<path d="M5413 1251 c-3 -11 -15 -21 -27 -23 -16 -2 -22 -11 -24 -37 -4 -38 9
-51 51 -51 27 0 27 1 27 65 0 40 -4 65 -11 65 -6 0 -13 -9 -16 -19z m-3 -66
c0 -14 -4 -25 -10 -25 -5 0 -10 11 -10 25 0 14 5 25 10 25 6 0 10 -11 10 -25z"/>
<path d="M5570 1260 c0 -5 5 -10 10 -10 6 0 10 5 10 10 0 6 -4 10 -10 10 -5 0
-10 -4 -10 -10z"/>
<path d="M4751 1236 c-6 -7 -9 -20 -7 -27 2 -8 7 -26 10 -41 4 -19 13 -28 26
-28 11 0 20 5 20 10 0 6 -4 10 -10 10 -14 0 -12 48 2 52 9 3 8 9 -4 21 -20 21
-22 21 -37 3z"/>
<path d="M4588 1229 c-19 -11 -24 -54 -9 -77 5 -8 21 -12 37 -10 25 3 29 8 32
38 3 24 -2 38 -14 47 -21 15 -24 15 -46 2z m40 -41 c-5 -32 -28 -35 -28 -4 0
17 5 26 16 26 10 0 14 -7 12 -22z"/>
<path d="M4967 1229 c-22 -13 -13 -29 13 -22 11 3 20 1 20 -5 0 -6 -10 -12
-22 -14 -15 -2 -23 -10 -23 -23 0 -16 8 -21 38 -23 l37 -3 0 40 c0 30 -5 43
-19 51 -23 12 -22 12 -44 -1z m33 -59 c0 -5 -7 -10 -16 -10 -8 0 -12 5 -9 10
3 6 10 10 16 10 5 0 9 -4 9 -10z"/>
<path d="M5131 1226 c-7 -8 -11 -30 -9 -48 3 -29 6 -33 32 -33 16 0 31 6 34
13 3 9 -3 11 -22 6 -16 -4 -26 -2 -26 5 0 6 14 11 30 11 34 0 40 19 14 44 -19
20 -38 20 -53 2z m34 -16 c3 -5 -1 -10 -10 -10 -9 0 -13 5 -10 10 3 6 8 10 10
10 2 0 7 -4 10 -10z"/>
<path d="M5626 1224 c-20 -19 -21 -58 -2 -74 19 -15 58 -9 64 9 3 10 -2 12
-22 7 -23 -6 -26 -3 -26 20 0 21 4 25 20 21 27 -7 35 9 11 22 -25 14 -27 14
-45 -5z"/>
<path d="M5716 1224 c-20 -19 -21 -58 -2 -74 17 -13 63 -10 57 5 -2 6 -12 9
-23 7 -10 -2 -18 2 -18 7 0 6 11 11 25 11 31 0 35 34 6 50 -25 13 -27 13 -45
-6z m39 -14 c3 -5 -1 -10 -10 -10 -9 0 -13 5 -10 10 3 6 8 10 10 10 2 0 7 -4
10 -10z"/>
<path d="M783 1190 c0 -25 2 -35 4 -22 2 12 9 22 14 22 5 0 14 -10 19 -22 7
-19 9 -14 8 22 0 25 -2 37 -5 28 -2 -10 -11 -18 -18 -18 -7 0 -16 8 -18 18 -3
9 -5 -3 -4 -28z"/>
<path d="M931 1190 c1 -25 3 -36 6 -25 8 31 23 42 23 17 0 -12 5 -22 10 -22
17 0 11 40 -7 47 -10 4 -21 11 -25 17 -4 6 -7 -9 -7 -34z"/>
<path d="M2872 1190 c0 -25 2 -37 5 -27 2 9 11 17 18 17 7 0 16 -8 18 -17 3
-10 5 2 5 27 0 25 -2 37 -5 28 -2 -10 -11 -18 -18 -18 -7 0 -16 8 -18 18 -3 9
-5 -3 -5 -28z"/>
<path d="M3022 1190 c0 -25 3 -35 5 -22 6 28 23 29 23 0 0 -16 3 -19 11 -11
14 14 2 53 -16 53 -7 0 -16 6 -18 13 -3 6 -5 -8 -5 -33z"/>
<path d="M4816 1208 c23 -76 39 -88 51 -41 l6 28 10 -28 c12 -38 23 -34 40 18
13 36 13 45 3 45 -8 0 -17 -10 -21 -22 l-8 -23 -4 23 c-5 24 -33 31 -33 7 0
-8 -4 -15 -10 -15 -5 0 -10 7 -10 15 0 8 -7 15 -16 15 -11 0 -14 -6 -8 -22z"/>
<path d="M5050 1185 c0 -33 4 -45 15 -45 10 0 15 11 15 35 0 19 5 35 10 35 6
0 10 5 10 10 0 6 -11 10 -25 10 -23 0 -25 -4 -25 -45z"/>
<path d="M5460 1225 c0 -18 34 -85 44 -85 6 0 19 20 28 45 14 37 14 45 3 45
-7 0 -18 -12 -23 -27 l-10 -28 -7 28 c-4 15 -13 27 -21 27 -8 0 -14 -2 -14 -5z"/>
<path d="M5570 1185 c0 -25 5 -45 10 -45 6 0 10 20 10 45 0 25 -4 45 -10 45
-5 0 -10 -20 -10 -45z"/>
<path d="M7352 1190 c0 -25 2 -37 5 -27 2 9 11 17 18 17 7 0 16 -8 18 -17 3
-10 5 2 5 27 1 36 -1 41 -8 23 -5 -13 -12 -23 -15 -23 -3 0 -10 10 -15 23 -7
18 -9 13 -8 -23z"/>
<path d="M7501 1187 c1 -23 4 -32 6 -19 5 27 23 29 23 2 0 -11 5 -20 10 -20
19 0 10 37 -15 58 l-25 22 1 -43z"/>
<path d="M840 1185 c0 -14 5 -25 10 -25 6 0 10 11 10 25 0 14 -4 25 -10 25 -5
0 -10 -11 -10 -25z"/>
<path d="M877 1203 c-14 -13 -7 -43 11 -43 14 0 15 -2 2 -10 -8 -5 -11 -12 -7
-16 12 -13 37 18 37 47 0 21 -5 29 -18 29 -10 0 -22 -3 -25 -7z m19 -30 c-10
-10 -19 5 -10 18 6 11 8 11 12 0 2 -7 1 -15 -2 -18z"/>
<path d="M2967 1203 c-13 -12 -7 -42 11 -52 12 -8 13 -10 3 -11 -8 0 -12 -2
-9 -5 3 -3 13 -3 22 1 21 8 21 60 0 68 -19 7 -19 7 -27 -1z m23 -29 c0 -8 -4
-12 -10 -9 -5 3 -10 10 -10 16 0 5 5 9 10 9 6 0 10 -7 10 -16z"/>
<path d="M7447 1203 c-13 -12 -7 -44 9 -50 13 -5 13 -8 2 -15 -9 -7 -8 -8 7
-6 35 6 30 77 -6 78 -3 0 -9 -3 -12 -7z m23 -29 c0 -8 -4 -12 -10 -9 -5 3 -10
10 -10 16 0 5 5 9 10 9 6 0 10 -7 10 -16z"/>
<path d="M2930 1181 c0 -11 5 -23 10 -26 6 -4 10 5 10 19 0 14 -4 26 -10 26
-5 0 -10 -9 -10 -19z"/>
<path d="M7410 1175 c0 -14 5 -25 10 -25 6 0 10 11 10 25 0 14 -4 25 -10 25
-5 0 -10 -11 -10 -25z"/>
<path d="M630 1086 c0 -20 5 -36 10 -36 6 0 10 6 10 14 0 7 9 16 21 19 29 8
19 31 -14 35 -25 3 -27 0 -27 -32z m40 14 c0 -5 -4 -10 -10 -10 -5 0 -10 5
-10 10 0 6 5 10 10 10 6 0 10 -4 10 -10z"/>
<path d="M805 1110 c-3 -5 -17 -10 -31 -10 -19 0 -24 -5 -24 -25 0 -30 16 -33
23 -5 3 11 10 20 16 20 6 0 11 -9 11 -20 0 -25 20 -27 21 -2 0 9 2 25 4 35 3
18 -10 23 -20 7z"/>
<path d="M2731 1083 c1 -21 3 -31 6 -22 2 10 13 19 25 22 25 7 19 31 -10 35
-19 3 -22 -1 -21 -35z m29 17 c0 -5 -4 -10 -10 -10 -5 0 -10 5 -10 10 0 6 5
10 10 10 6 0 10 -4 10 -10z"/>
<path d="M2895 1110 c-3 -5 -15 -10 -26 -10 -14 0 -19 -7 -18 -27 0 -27 1 -27
9 -5 12 27 30 29 30 2 0 -25 20 -27 21 -2 0 9 2 25 4 35 3 18 -10 23 -20 7z"/>
<path d="M7210 1084 c0 -31 2 -34 15 -21 8 9 20 17 27 19 19 7 1 38 -22 38
-16 0 -20 -6 -20 -36z m31 13 c-1 -12 -15 -9 -19 4 -3 6 1 10 8 8 6 -3 11 -8
11 -12z"/>
<path d="M7377 1113 c-11 -10 -8 -63 3 -63 6 0 10 8 11 18 0 9 2 25 4 35 3 17
-6 23 -18 10z"/>
<path d="M698 1088 c-8 -22 3 -38 25 -37 21 0 21 1 2 9 -18 8 -18 9 -2 9 10 1
17 7 15 14 -6 17 -34 21 -40 5z"/>
<path d="M836 1084 c-8 -21 11 -45 30 -37 20 7 14 47 -7 51 -9 2 -19 -5 -23
-14z m34 -15 c0 -5 -4 -9 -10 -9 -5 0 -10 7 -10 16 0 8 5 12 10 9 6 -3 10 -10
10 -16z"/>
<path d="M890 1075 c0 -32 12 -32 27 0 10 22 9 25 -8 25 -14 0 -19 -7 -19 -25z"/>
<path d="M941 1073 l1 -28 8 25 8 25 8 -24 7 -25 10 25 10 24 7 -25 8 -25 1
28 c1 24 -2 27 -34 27 -32 0 -35 -3 -34 -27z"/>
<path d="M1027 1086 c-7 -19 20 -49 36 -39 7 4 4 9 -9 14 -18 7 -18 8 -1 8 10
1 17 7 15 14 -7 18 -35 20 -41 3z"/>
<path d="M1080 1075 c0 -32 12 -32 27 0 10 22 9 25 -8 25 -14 0 -19 -7 -19
-25z"/>
<path d="M2797 1093 c-16 -16 -6 -43 16 -42 21 0 21 1 2 9 -19 8 -19 9 2 9 16
1 21 6 17 16 -6 16 -26 20 -37 8z"/>
<path d="M2937 1093 c-15 -14 -7 -43 12 -43 24 0 33 13 25 34 -6 16 -25 21
-37 9z m23 -18 c0 -8 -4 -15 -10 -15 -5 0 -10 7 -10 15 0 8 5 15 10 15 6 0 10
-7 10 -15z"/>
<path d="M2991 1073 c0 -16 3 -22 6 -13 3 8 10 21 16 28 7 8 5 12 -7 12 -11 0
-16 -8 -15 -27z"/>
<path d="M3031 1073 c2 -23 2 -24 6 -5 2 12 9 22 14 22 5 0 9 -10 10 -22 0
-22 1 -22 11 2 11 25 11 25 15 3 3 -13 9 -23 14 -23 6 0 9 10 7 23 -2 18 -10
23 -40 25 -36 3 -38 2 -37 -25z"/>
<path d="M3120 1075 c0 -19 5 -25 23 -24 21 0 21 1 2 9 -17 7 -17 9 -2 9 24 1
22 31 -3 31 -15 0 -20 -7 -20 -25z"/>
<path d="M3181 1073 c0 -16 3 -22 6 -13 3 8 10 21 16 28 7 8 5 12 -7 12 -11 0
-16 -8 -15 -27z"/>
<path d="M7277 1094 c-4 -4 -7 -15 -7 -25 0 -19 26 -33 35 -19 3 5 -3 11 -12
13 -17 4 -17 5 0 6 10 0 17 6 15 13 -5 14 -22 21 -31 12z"/>
<path d="M7331 1073 c0 -16 3 -22 6 -13 3 8 10 21 16 28 7 8 5 12 -7 12 -11 0
-16 -8 -15 -27z"/>
<path d="M7414 1086 c-8 -22 3 -49 19 -43 6 2 12 14 12 27 0 27 -22 39 -31 16z
m26 -17 c0 -5 -4 -9 -10 -9 -5 0 -10 7 -10 16 0 8 5 12 10 9 6 -3 10 -10 10
-16z"/>
<path d="M7471 1073 c0 -16 3 -22 6 -13 3 8 10 21 16 28 7 8 5 12 -7 12 -11 0
-16 -8 -15 -27z"/>
<path d="M7511 1067 c2 -30 2 -31 6 -4 5 31 23 27 24 -6 0 -14 2 -17 6 -7 14
43 16 44 23 15 l8 -30 1 31 c1 28 -2 31 -34 32 -33 1 -35 0 -34 -31z"/>
<path d="M7596 1084 c-8 -22 17 -49 35 -38 9 5 8 9 -7 15 -18 7 -18 8 -1 8 10
1 17 7 15 14 -7 19 -35 20 -42 1z"/>
<path d="M7650 1075 c0 -32 12 -32 27 0 10 22 9 25 -8 25 -14 0 -19 -7 -19
-25z"/>
<path d="M1670 1075 c-10 -12 -10 -18 0 -30 10 -12 10 -15 -4 -15 -17 0 -22
-15 -7 -24 5 -4 17 -3 26 0 13 5 15 14 11 35 -3 16 -2 28 2 26 4 -1 8 3 10 8
5 17 -24 17 -38 0z"/>
<path d="M1720 1054 c-14 -41 -5 -58 16 -30 12 17 14 18 14 3 0 -30 18 -18 30
19 14 41 6 56 -15 28 -13 -17 -14 -17 -15 -1 0 29 -18 19 -30 -19z"/>
<path d="M1807 1072 c-21 -22 -22 -58 -3 -65 24 -10 57 22 54 51 -4 33 -28 39
-51 14z m24 -35 c-16 -16 -26 0 -10 19 9 11 15 12 17 4 2 -6 -1 -17 -7 -23z"/>
<path d="M1874 1055 c-18 -44 -19 -42 15 -42 24 0 30 5 35 30 11 57 -27 67
-50 12z"/>
<path d="M1949 1088 c0 -2 -2 -20 -4 -40 -5 -45 9 -50 24 -8 5 17 15 30 20 30
6 0 11 5 11 10 0 8 -49 15 -51 8z"/>
<path d="M1997 1050 c-15 -39 -15 -40 6 -40 19 0 22 6 23 40 1 22 -2 40 -6 40
-4 0 -14 -18 -23 -40z"/>
<path d="M2055 1056 c-18 -43 -18 -46 -2 -46 17 0 39 67 26 76 -5 3 -16 -10
-24 -30z"/>
<path d="M2100 1075 c-7 -8 -10 -21 -7 -29 3 -8 1 -16 -5 -18 -6 -2 -8 -10 -4
-16 5 -9 13 -9 27 -1 16 8 19 17 14 36 -4 16 -2 22 5 18 5 -3 10 1 10 9 0 20
-24 21 -40 1z"/>
<path d="M2154 1075 c3 -8 1 -26 -4 -40 -7 -19 -6 -25 4 -25 8 0 19 14 25 30
5 17 15 30 21 30 6 0 8 5 5 10 -3 6 -18 10 -32 10 -18 0 -24 -4 -19 -15z"/>
<path d="M2296 1024 c-17 -55 -18 -56 -50 -51 -28 4 -35 1 -50 -24 -28 -47
-119 -141 -172 -177 -37 -25 -40 -26 -14 -5 90 73 190 182 190 207 0 3 -121 6
-270 6 -148 0 -270 -3 -270 -6 0 -16 66 -97 120 -147 84 -78 143 -112 169 -97
12 6 21 8 21 6 0 -3 -9 -10 -21 -16 -16 -9 -29 -6 -65 15 -60 35 -176 146
-211 201 -27 43 -43 55 -43 33 0 -19 65 -102 128 -161 65 -62 147 -118 172
-118 29 0 153 95 218 165 34 38 62 72 62 76 0 5 25 9 55 9 l54 0 17 58 c9 31
19 63 21 70 3 7 -4 12 -19 12 -21 0 -27 -8 -42 -56z m-421 -114 c4 -6 1 -17
-5 -25 -10 -11 -10 -15 -1 -15 7 0 9 -4 6 -10 -7 -11 -45 -14 -45 -3 0 3 7 15
17 25 15 17 15 18 -1 18 -9 0 -14 5 -11 10 8 13 32 13 40 0z m53 -19 c2 -13
-1 -28 -8 -35 -16 -15 -40 18 -33 45 7 27 37 20 41 -10z m50 -6 c-1 -27 -6
-35 -20 -35 -21 0 -23 11 -5 29 10 11 10 14 0 18 -20 7 -15 23 7 23 16 0 19
-6 18 -35z m52 0 c0 -19 -4 -35 -10 -35 -5 0 -10 9 -10 20 0 11 -5 20 -11 20
-8 0 -8 5 1 15 20 24 30 17 30 -20z"/>
<path d="M1901 884 c0 -11 3 -14 6 -6 3 7 2 16 -1 19 -3 4 -6 -2 -5 -13z"/>
<path d="M6212 995 c0 -16 2 -22 5 -12 2 9 2 23 0 30 -3 6 -5 -1 -5 -18z"/>
<path d="M6822 995 c0 -16 2 -22 5 -12 2 9 2 23 0 30 -3 6 -5 -1 -5 -18z"/>
<path d="M560 985 c-6 -17 -6 -33 2 -50 l11 -25 309 0 308 0 10 25 c6 16 6 34
0 50 l-10 25 -310 0 -310 0 -10 -25z m120 -23 c0 -13 2 -14 8 -4 5 7 22 12 38
11 16 -1 44 2 62 6 30 7 32 6 32 -19 0 -24 -3 -26 -45 -26 -36 0 -45 4 -46 18
0 14 -2 14 -9 -3 l-9 -20 -1 20 c-1 16 -3 17 -8 5 -10 -23 -54 -19 -58 5 -3
20 14 38 28 29 4 -3 8 -13 8 -22z m187 7 c4 -16 8 -17 14 -7 7 10 9 8 10 -7
l0 -20 9 20 c8 19 9 19 9 -1 1 -19 -5 -22 -39 -22 -35 -1 -40 2 -40 22 0 39
28 51 37 15z m182 -1 c50 2 70 -7 71 -30 0 -4 -45 -7 -100 -7 -92 -1 -100 1
-100 18 0 22 24 31 55 23 11 -3 45 -5 74 -4z"/>
<path d="M2648 985 c-8 -19 -8 -31 0 -50 l12 -25 310 0 310 0 11 23 c7 15 7
31 0 50 l-11 27 -310 0 -310 0 -12 -25z m233 -12 c-11 -5 -11 -7 0 -14 12 -7
11 -9 -1 -9 -13 0 -13 -1 0 -10 13 -8 12 -10 -2 -10 -13 0 -18 8 -18 25 0 17
5 25 18 24 12 0 13 -2 3 -6z m40 -18 c7 19 8 19 8 -2 1 -14 -5 -23 -14 -23 -9
0 -15 9 -14 23 1 20 2 20 7 2 l5 -20 8 20z m32 -5 c-3 -11 -7 -20 -9 -20 -2 0
-4 9 -4 20 0 11 4 20 9 20 5 0 7 -9 4 -20z m33 0 c0 -21 -11 -26 -21 -10 -7
11 2 30 13 30 4 0 8 -9 8 -20z m84 7 c0 -4 0 -11 0 -17 0 -15 -17 -12 -35 6
-15 16 -16 16 -13 -1 2 -10 -2 -20 -8 -22 -13 -4 -27 24 -19 37 6 10 75 8 75
-3z"/>
<path d="M7133 988 c-6 -14 -7 -32 -2 -45 l8 -23 310 0 c304 0 310 0 316 21 4
11 4 31 1 45 l-6 24 -309 0 -308 0 -10 -22z m158 -10 c0 -10 2 -10 6 0 2 6 13
12 23 12 10 0 21 -6 24 -12 5 -10 7 -10 12 0 8 17 24 15 24 -3 0 -8 7 -15 15
-15 8 0 15 7 15 15 0 8 5 15 10 15 6 0 10 -6 10 -12 0 -9 4 -8 10 2 7 10 12
11 18 4 13 -19 39 -23 61 -8 15 11 21 12 21 3 0 -8 13 -10 39 -6 35 4 39 3 39
-19 0 -13 -4 -24 -9 -24 -5 0 -9 6 -9 13 0 8 -3 8 -8 2 -4 -6 -22 -11 -39 -12
-24 0 -33 4 -34 16 -1 14 -2 13 -6 -1 -3 -13 -15 -18 -39 -18 -19 0 -34 5 -34
11 0 8 -5 8 -15 -1 -10 -9 -15 -9 -15 -1 0 6 -7 11 -15 11 -8 0 -15 -4 -15 -9
0 -13 -61 -11 -77 2 -9 6 -13 6 -13 -2 0 -6 -4 -11 -10 -11 -5 0 -10 14 -10
30 0 28 19 44 21 18z"/>
<path d="M6221 934 c0 -11 3 -14 6 -6 3 7 2 16 -1 19 -3 4 -6 -2 -5 -13z"/>
<path d="M6811 934 c0 -11 3 -14 6 -6 3 7 2 16 -1 19 -3 4 -6 -2 -5 -13z"/>
<path d="M6230 902 c0 -27 40 -89 87 -132 l48 -45 -47 50 c-26 28 -56 70 -67
95 -11 25 -21 39 -21 32z"/>
<path d="M6788 870 c-9 -22 -15 -40 -13 -40 8 0 36 61 33 70 -2 5 -11 -9 -20
-30z"/>
<path d="M9388 893 c6 -2 13 -21 13 -41 2 -34 2 -34 6 -7 2 17 12 36 21 43 13
10 11 12 -19 11 -19 0 -28 -3 -21 -6z"/>
<path d="M9723 860 c0 -25 2 -35 4 -22 2 12 2 32 0 45 -2 12 -4 2 -4 -23z"/>
<path d="M9598 885 c-6 -7 3 -65 11 -65 7 0 7 58 -1 65 -2 3 -7 3 -10 0z"/>
<path d="M9812 858 c2 -17 8 -33 14 -35 6 -2 8 10 6 32 -5 44 -24 47 -20 3z"/>
<path d="M766 864 c-11 -27 -7 -37 9 -24 12 10 15 10 16 -1 0 -8 4 -5 9 6 12
27 12 43 0 25 -6 -10 -10 -11 -10 -2 0 17 -17 15 -24 -4z"/>
<path d="M822 855 c0 -16 2 -22 5 -12 2 9 2 23 0 30 -3 6 -5 -1 -5 -18z"/>
<path d="M840 860 c0 -12 4 -19 9 -16 5 4 12 0 14 -6 4 -10 6 -10 6 0 1 7 -6
20 -14 28 -13 14 -15 13 -15 -6z"/>
<path d="M888 873 c6 -2 18 -2 25 0 6 3 1 5 -13 5 -14 0 -19 -2 -12 -5z"/>
<path d="M930 855 c0 -17 5 -25 18 -25 13 0 14 2 4 9 -8 4 -14 12 -14 16 0 4
6 12 14 16 10 7 9 9 -4 9 -13 0 -18 -8 -18 -25z"/>
<path d="M971 853 c0 -16 3 -22 6 -14 5 11 7 11 14 0 6 -10 9 -6 9 14 0 17 -5
27 -15 27 -10 0 -15 -9 -14 -27z"/>
<path d="M2850 857 c0 -13 5 -17 15 -13 8 3 15 0 15 -7 0 -8 4 -6 10 3 5 8 10
22 10 30 0 13 -1 13 -10 0 -5 -8 -10 -10 -10 -4 0 6 -7 11 -15 11 -8 0 -15 -9
-15 -20z"/>
<path d="M2912 855 c0 -16 2 -22 5 -12 2 9 2 23 0 30 -3 6 -5 -1 -5 -18z"/>
<path d="M2930 863 c0 -12 8 -19 20 -20 11 -1 20 4 20 12 0 7 10 16 23 18 19
4 18 4 -5 6 -16 0 -28 -4 -28 -10 0 -8 -5 -8 -15 1 -12 10 -15 9 -15 -7z"/>
<path d="M3020 855 c0 -17 5 -25 18 -25 13 0 14 2 4 9 -8 4 -14 12 -14 16 0 4
6 12 14 16 10 7 9 9 -4 9 -13 0 -18 -8 -18 -25z"/>
<path d="M3061 853 c0 -16 3 -22 6 -14 5 11 7 11 14 0 6 -10 9 -6 9 14 0 17
-5 27 -15 27 -10 0 -15 -9 -14 -27z"/>
<path d="M7330 858 c0 -22 16 -24 24 -2 8 21 8 21 -9 21 -8 0 -15 -9 -15 -19z"/>
<path d="M7365 860 c-4 -12 -5 -24 -2 -27 3 -2 8 5 12 17 4 12 5 24 2 27 -3 2
-8 -5 -12 -17z"/>
<path d="M7392 860 c0 -14 2 -19 5 -12 2 6 2 18 0 25 -3 6 -5 1 -5 -13z"/>
<path d="M7410 863 c0 -12 8 -19 20 -20 15 -1 20 4 19 20 0 12 -3 16 -6 9 -4
-10 -8 -10 -19 -1 -11 9 -14 8 -14 -8z"/>
<path d="M7467 860 c3 -11 7 -20 9 -20 2 0 4 9 4 20 0 11 -4 20 -9 20 -5 0 -7
-9 -4 -20z"/>
<path d="M7501 858 c-1 -21 4 -28 17 -28 11 0 13 3 6 8 -7 4 -14 16 -17 27 -4
15 -5 14 -6 -7z"/>
<path d="M7541 864 c-1 -12 5 -21 14 -21 9 0 15 9 15 21 0 16 -2 18 -9 7 -7
-11 -9 -11 -14 0 -3 9 -6 6 -6 -7z"/>
<path d="M9441 846 c1 -21 3 -25 6 -11 3 11 9 25 14 31 5 7 3 11 -6 11 -10 0
-15 -10 -14 -31z"/>
<path d="M9481 853 c-1 -29 2 -33 24 -33 22 0 25 4 24 33 -1 29 -2 29 -8 8 -9
-35 -29 -37 -34 -4 -4 27 -4 27 -6 -4z"/>
<path d="M9545 869 c-4 -6 1 -17 11 -25 17 -14 17 -15 2 -10 -10 3 -18 1 -18
-4 0 -12 33 -13 44 -3 4 4 -3 16 -16 26 -16 13 -18 17 -5 13 9 -3 17 -1 17 4
0 13 -27 13 -35 -1z"/>
<path d="M9631 835 c0 -22 3 -34 6 -27 2 6 13 12 23 12 10 0 20 7 24 15 9 25
-4 45 -30 43 -21 -2 -24 -7 -23 -43z m42 20 c8 -18 -11 -31 -25 -17 -11 11 -3
32 12 32 4 0 10 -7 13 -15z"/>
<path d="M9702 850 c0 -19 2 -27 5 -17 2 9 2 25 0 35 -3 9 -5 1 -5 -18z"/>
<path d="M9751 867 c-17 -21 -3 -49 23 -45 15 2 21 10 21 28 0 28 -26 38 -44
17z m34 -17 c0 -7 -6 -15 -12 -17 -8 -3 -13 4 -13 17 0 13 5 20 13 18 6 -3 12
-11 12 -18z"/>
<path d="M9295 850 c-3 -6 1 -7 9 -4 18 7 21 14 7 14 -6 0 -13 -4 -16 -10z"/>
<path d="M2905 809 c-5 -8 -4 -10 3 -5 16 9 15 -7 0 -22 -8 -8 -8 -12 -1 -12
6 0 14 8 17 17 8 20 -9 40 -19 22z"/>
<path d="M2944 806 c-3 -8 -4 -21 -1 -28 3 -7 6 -2 7 12 l2 25 8 -25 c7 -23 8
-23 9 -3 1 27 -17 40 -25 19z"/>
<path d="M2985 809 c-5 -8 -4 -10 3 -5 16 9 15 -7 0 -22 -8 -8 -8 -12 -1 -12
6 0 14 8 17 17 8 20 -9 40 -19 22z"/>
<path d="M6720 775 c-24 -25 -42 -45 -39 -45 3 0 25 20 49 45 24 25 42 45 39
45 -3 0 -25 -20 -49 -45z"/>
<path d="M7374 808 c-4 -7 -3 -8 4 -4 16 9 15 -7 0 -22 -9 -9 -9 -12 3 -12 8
0 16 11 17 25 2 26 -12 34 -24 13z"/>
<path d="M7417 813 c-14 -14 -7 -43 11 -42 10 0 12 3 5 6 -7 2 -13 11 -13 19
0 9 5 12 10 9 6 -3 10 -1 10 4 0 12 -13 14 -23 4z"/>
<path d="M7454 808 c-4 -7 -3 -8 4 -4 16 9 15 -7 0 -22 -9 -9 -9 -12 3 -12 8
0 16 11 17 25 2 26 -12 34 -24 13z"/>
<path d="M7494 808 c-4 -7 -3 -8 4 -4 16 9 15 -7 0 -22 -9 -9 -9 -12 3 -12 8
0 16 11 17 25 2 26 -12 34 -24 13z"/>
<path d="M809 801 c9 -6 10 -11 2 -15 -15 -10 -14 -26 2 -26 7 0 14 11 15 25
1 18 -3 25 -16 25 -13 0 -14 -2 -3 -9z"/>
<path d="M842 788 c5 -32 28 -35 28 -4 0 17 -5 26 -16 26 -10 0 -14 -7 -12
-22z m15 -10 c-3 -8 -6 -5 -6 6 -1 11 2 17 5 13 3 -3 4 -12 1 -19z"/>
<path d="M889 801 c12 -8 12 -12 2 -25 -11 -13 -11 -16 1 -16 7 0 15 11 16 25
1 18 -3 25 -16 25 -14 0 -14 -2 -3 -9z"/>
<path d="M929 801 c12 -8 12 -12 2 -25 -11 -13 -11 -16 1 -16 7 0 15 11 16 25
1 18 -3 25 -16 25 -14 0 -14 -2 -3 -9z"/>
<path d="M3027 790 c3 -11 7 -20 9 -20 2 0 4 9 4 20 0 11 -4 20 -9 20 -5 0 -7
-9 -4 -20z"/>
<path d="M4809 791 c-5 -31 -29 -40 -29 -12 0 12 -4 21 -10 21 -14 0 -12 -23
4 -46 14 -18 16 -18 31 -3 10 9 15 27 13 40 l-4 24 -5 -24z"/>
<path d="M4840 800 c-13 -9 -13 -12 3 -24 18 -14 18 -14 0 -19 -17 -4 -17 -4
0 -12 27 -12 47 12 25 29 -20 15 -25 31 -6 20 7 -4 8 -3 4 4 -9 14 -7 14 -26
2z"/>
<path d="M4892 778 c2 -22 9 -34 21 -36 9 -2 17 1 17 7 0 6 -8 11 -17 12 -15
0 -15 2 2 9 l20 9 -20 1 c-20 1 -20 1 -1 15 19 15 19 15 -3 15 -19 0 -22 -5
-19 -32z"/>
<path d="M4950 773 c0 -27 3 -34 9 -24 8 12 13 12 24 3 12 -10 15 -8 15 15 0
28 -12 43 -35 43 -8 0 -13 -14 -13 -37z m40 13 c0 -11 -19 -15 -25 -6 -3 5 1
10 9 10 9 0 16 -2 16 -4z"/>
<path d="M5047 804 c-11 -12 -8 -56 3 -49 6 4 17 2 25 -5 11 -9 13 -5 12 22
-2 31 -23 48 -40 32z m33 -18 c0 -11 -19 -15 -25 -6 -3 5 1 10 9 10 9 0 16 -2
16 -4z"/>
<path d="M5120 786 c-5 -15 -10 -28 -10 -29 0 -1 11 -2 25 -2 20 0 24 4 19 20
-11 35 -23 39 -34 11z"/>
<path d="M5170 800 c0 -5 5 -10 10 -10 6 0 10 -10 10 -22 0 -27 5 -21 14 15 5
23 3 27 -14 27 -11 0 -20 -4 -20 -10z"/>
<path d="M5233 775 c0 -22 2 -30 4 -17 2 12 2 30 0 40 -3 9 -5 -1 -4 -23z"/>
<path d="M5261 774 c1 -24 3 -30 6 -16 2 12 9 20 14 17 15 -10 10 12 -6 25
-13 11 -15 7 -14 -26z"/>
<path d="M5297 783 c-3 -16 -1 -32 4 -37 5 -6 9 4 9 27 0 44 -6 48 -13 10z"/>
<path d="M5343 803 c-19 -7 -16 -50 3 -57 17 -6 44 9 44 25 0 5 -7 9 -16 9 -8
0 -12 -4 -9 -10 3 -5 -1 -10 -9 -10 -9 0 -16 7 -16 15 0 8 9 15 21 15 11 0 17
5 14 10 -7 11 -13 11 -32 3z"/>
<path d="M5407 803 c-13 -13 -7 -33 11 -34 15 0 15 -1 -2 -8 -14 -5 -16 -10
-8 -15 7 -4 17 -4 22 -1 16 10 12 33 -7 38 -17 4 -17 5 0 6 10 0 15 6 12 11
-7 12 -19 13 -28 3z"/>
<path d="M6374 721 c7 -11 46 -35 46 -28 0 3 -12 12 -26 22 -15 9 -23 12 -20
6z"/>
</g>
</svg>
